# xmcd CD database file
#
# Track frame offsets:
#	180
#	20448
#	34811
#	51247
#	70173
#	78031
#	95933
#	109839
#	124390
#	145352
#	168670
#	184686
#
# Disc length: 2571 seconds
#
# Revision: 0
# Processed by: cddbd v1.5.2PL0 Copyright (c) Steve Scherf et al.
# Submitted via: CDex 1.70beta2
#
DISCID=ab0a090c
DTITLE=Patrick Ashcroft - Guitar Sweets
DYEAR=1996
DGENRE=Jazz
TTITLE0=The Cat
TTITLE1=From the Heart
TTITLE2=Blues in a Jar
TTITLE3=Nature Boy
TTITLE4=Bouree
TTITLE5=Captive Soul
TTITLE6=Chance of Showers
TTITLE7=Jobim
TTITLE8=Smokey Blues
TTITLE9=Oh Susan
TTITLE10=Kealy
TTITLE11=Hidden
EXTD=YEAR: 1996
EXTT0=
EXTT1=
EXTT2=
EXTT3=
EXTT4=
EXTT5=
EXTT6=
EXTT7=
EXTT8=
EXTT9=
EXTT10=
EXTT11=
PLAYORDER=
